<svg width="136" height="39" xmlns="http://www.w3.org/2000/svg"><path d="M122.011 9.749h-14.289c-7.47.001-13.54 6.194-13.54 13.812v.711c0 7.615 6.07 13.81 13.54 13.81h14.29c7.462 0 13.531-6.195 13.531-13.81v-.71c0-7.619-6.069-13.812-13.532-13.813m0 22.941h-14.289c-4.52-.008-8.2-3.776-8.207-8.418v-.71c.007-4.648 3.687-8.41 8.207-8.422h14.29c4.517.011 8.185 3.774 8.198 8.421v.711c-.013 4.642-3.681 8.41-8.199 8.418zM20.535 38.222h-.013c-2.75-.003-5.358-1.572-7.142-4.242L.498 14.742A2.934 2.934 0 0 1 0 13.108c0-.92.43-1.827 1.225-2.388a2.765 2.765 0 0 1 1.599-.508c.898 0 1.783.439 2.328 1.256l12.886 19.238c.787 1.172 1.502 1.714 2.484 1.721h.02c.823 0 1.685-.5 2.469-1.72l12.881-19.239a2.8 2.8 0 0 1 2.329-1.256c.556 0 1.108.165 1.598.508a2.914 2.914 0 0 1 1.222 2.388 2.93 2.93 0 0 1-.495 1.634L27.665 33.984c-2.04 2.96-4.275 4.242-7.066 4.235-.035 0-.054 0-.064.003zm53.312 0h-.017c-2.751-.003-5.356-1.566-7.145-4.242l-12.88-19.238a2.93 2.93 0 0 1-.496-1.634c0-.92.43-1.827 1.222-2.388a2.791 2.791 0 0 1 1.602-.508c.894 0 1.781.439 2.329 1.256l12.881 19.238c.795 1.172 1.503 1.714 2.487 1.721h.02c.824 0 1.687-.5 2.47-1.72l12.878-19.239a2.81 2.81 0 0 1 2.333-1.256c.551 0 1.109.165 1.6.508a2.917 2.917 0 0 1 1.22 2.388c0 .564-.159 1.133-.495 1.634L80.973 33.984c-2.042 2.96-4.275 4.242-7.071 4.235-.028 0-.05 0-.055.003zm-26.672-28.01a2.85 2.85 0 0 1 2.845 2.853l-.003 22.299c0 1.58-1.275 2.85-2.842 2.859a2.858 2.858 0 0 1-2.842-2.86V13.066c0-1.58 1.276-2.85 2.842-2.85v-.003zm3.792-6.847c.225.226.335.527.335.822 0 .299-.11.595-.335.824l-2.981 3.026a1.135 1.135 0 0 1-1.618 0l-2.984-3.026a1.192 1.192 0 0 1-.334-.824c0-.295.114-.596.334-.822L46.368.34c.215-.222.5-.334.788-.34h.05c.285.006.566.118.78.34l2.98 3.025z" fill="#EEE" fill-rule="evenodd"/></svg>